<svg width="1249" height="1214" viewBox="0 0 1249 1214" fill="none" xmlns="http://www.w3.org/2000/svg">
<g clip-path="url(#clip0_1_5)">
<rect width="1249" height="1214" fill="white"/>
<path fill-rule="evenodd" clip-rule="evenodd" d="M419.135 689.928L274.369 542.559C192.979 622.512 191.814 753.305 271.767 834.695L419.135 689.928Z" fill="#F9CC56"/>
<path fill-rule="evenodd" clip-rule="evenodd" d="M451.865 689.051L596.631 836.42C678.021 756.467 679.186 625.674 599.233 544.285L451.865 689.051Z" fill="#C9CFA1"/>
<path fill-rule="evenodd" clip-rule="evenodd" d="M291.463 525.767C372.853 445.814 503.646 446.979 583.599 528.369L436.23 673.135L291.463 525.767Z" fill="#98A354"/>
<path fill-rule="evenodd" clip-rule="evenodd" d="M434.77 705.844L287.401 850.611C367.354 932 498.147 933.165 579.537 853.213L434.77 705.844Z" fill="#FEE4A1"/>
<path fill-rule="evenodd" clip-rule="evenodd" d="M302.138 836.134C374.095 909.384 491.809 910.433 565.06 838.476L434.77 705.844L302.138 836.134Z" fill="#F9CC56"/>
<path fill-rule="evenodd" clip-rule="evenodd" d="M582.155 821.683C655.405 749.726 656.454 632.012 584.497 558.761L451.865 689.051L582.155 821.683Z" fill="#98A354"/>
<path fill-rule="evenodd" clip-rule="evenodd" d="M288.845 557.296C215.595 629.253 214.546 746.967 286.503 820.218L419.135 689.928L288.845 557.296Z" fill="#FEE4A1"/>
<path fill-rule="evenodd" clip-rule="evenodd" d="M568.862 542.845C568.862 542.845 568.862 542.845 568.862 542.845C496.905 469.595 379.191 468.546 305.94 540.503L436.23 673.135L568.862 542.845Z" fill="#C9CFA1"/>
<path d="M503.856 293.699C430.292 341.845 434.03 419.452 445.094 452.238C459.089 357.744 531.068 318.85 565.308 311.215C493.18 344.989 463.784 419.303 458.102 452.238C520.183 460.861 569.196 394.152 585.942 359.72C615.009 311.215 658.759 301.783 677 303.131C600.206 255.344 529.573 276.932 503.856 293.699Z" fill="url(#paint0_linear_1_5)"/>
<path d="M297.235 372.625C292.903 365.446 275.273 345.107 267 335.834C313.211 308.915 360.264 318.336 378.014 326.412C438.304 354.409 437.131 419.136 429.008 448C419.982 361.498 360.865 341.368 332.435 342.116C393.447 357.55 417.425 419.136 421.788 448C364.024 448 314.685 397.75 297.235 372.625Z" fill="url(#paint1_linear_1_5)"/>
<path d="M265.667 672.031C252.089 684.697 260.74 706.599 266.763 715.966C271.951 717.65 387.2 696.193 387.651 688.477C388.011 682.304 306.478 674.941 265.667 672.031Z" stroke="#F9CC56"/>
<g filter="url(#filter0_d_1_5)">
<path d="M265.667 672.031C252.089 684.697 260.74 706.599 266.763 715.966C271.951 717.65 387.2 696.193 387.651 688.477C388.011 682.304 306.478 674.941 265.667 672.031Z" fill="#F9CC56"/>
<path d="M265.667 672.031C252.089 684.697 260.74 706.599 266.763 715.966C271.951 717.65 387.2 696.193 387.651 688.477C388.011 682.304 306.478 674.941 265.667 672.031Z" stroke="#F9CC56"/>
</g>
<g filter="url(#filter1_d_1_5)">
<path d="M288.096 605.077C270.207 610.056 267.786 633.48 268.812 644.569C272.639 648.455 384.801 682.55 388.759 675.911C391.925 670.6 322.969 626.475 288.096 605.077Z" fill="#F9CC56"/>
<path d="M288.096 605.077C270.207 610.056 267.786 633.48 268.812 644.569C272.639 648.455 384.801 682.55 388.759 675.911C391.925 670.6 322.969 626.475 288.096 605.077Z" stroke="#F9CC56"/>
</g>
<path d="M642.489 702.32C656.446 699.086 648.533 692.402 642.833 689.465C637.714 688.797 522.065 691.14 521.363 693.376C520.802 695.164 601.88 700.084 642.489 702.32Z" fill="#C9CFA1" stroke="#C9CFA1"/>
<path d="M603.02 803.617C615.465 810.162 614.008 800.033 611.725 794.151C608.379 790.354 521.335 717.697 519.347 718.93C517.756 719.916 574.466 775.799 603.02 803.617Z" fill="#C9CFA1" stroke="#C9CFA1"/>
<path d="M617.21 590.971C626.463 578.707 615.74 579.468 609.221 581.381C604.635 584.532 512.231 668.375 513.099 670.499C513.793 672.198 582.796 618.189 617.21 590.971Z" fill="#C9CFA1" stroke="#C9CFA1"/>
<g filter="url(#filter2_d_1_5)">
<path d="M273.878 737.94C267.146 755.245 284.448 771.219 293.941 777.042C299.345 776.307 393.849 706.94 390.905 699.793C388.55 694.076 311.906 722.842 273.878 737.94Z" fill="#F9CC56"/>
<path d="M273.878 737.94C267.146 755.245 284.448 771.219 293.941 777.042C299.345 776.307 393.849 706.94 390.905 699.793C388.55 694.076 311.906 722.842 273.878 737.94Z" stroke="#F9CC56"/>
</g>
<g filter="url(#filter3_d_1_5)">
<ellipse cx="438" cy="589.5" rx="8" ry="23.5" fill="url(#paint2_radial_1_5)"/>
</g>
<g filter="url(#filter4_d_1_5)">
<ellipse cx="458.537" cy="613.392" rx="8" ry="23.5" transform="rotate(29.5085 458.537 613.392)" fill="url(#paint3_radial_1_5)"/>
</g>
<g filter="url(#filter5_d_1_5)">
<ellipse cx="541.208" cy="730.972" rx="4.04688" ry="3.42243" transform="rotate(29.5085 541.208 730.972)" fill="url(#paint4_radial_1_5)" fill-opacity="0.5" shape-rendering="crispEdges"/>
</g>
<g filter="url(#filter6_d_1_5)">
<ellipse cx="571.208" cy="774.972" rx="4.04688" ry="3.42243" transform="rotate(29.5085 571.208 774.972)" fill="url(#paint5_radial_1_5)" fill-opacity="0.5" shape-rendering="crispEdges"/>
</g>
<g filter="url(#filter7_d_1_5)">
<ellipse cx="592.208" cy="688.972" rx="4.04688" ry="3.42243" transform="rotate(29.5085 592.208 688.972)" fill="url(#paint6_radial_1_5)" fill-opacity="0.5" shape-rendering="crispEdges"/>
</g>
<g filter="url(#filter8_d_1_5)">
<ellipse cx="592.208" cy="688.972" rx="4.04688" ry="3.42243" transform="rotate(29.5085 592.208 688.972)" fill="url(#paint7_radial_1_5)" fill-opacity="0.5" shape-rendering="crispEdges"/>
</g>
<g filter="url(#filter9_d_1_5)">
<ellipse cx="594.208" cy="607.972" rx="4.04688" ry="3.42243" transform="rotate(29.5085 594.208 607.972)" fill="url(#paint8_radial_1_5)" fill-opacity="0.5" shape-rendering="crispEdges"/>
</g>
<g filter="url(#filter10_d_1_5)">
<ellipse cx="548.208" cy="647.972" rx="4.04688" ry="3.42243" transform="rotate(29.5085 548.208 647.972)" fill="url(#paint9_radial_1_5)"/>
</g>
<g filter="url(#filter11_d_1_5)">
<ellipse cx="414.657" cy="613.005" rx="8" ry="23.5" transform="rotate(-33.5589 414.657 613.005)" fill="url(#paint10_radial_1_5)"/>
</g>
<g filter="url(#filter12_i_1_5)">
<path d="M481.001 754C465.024 744.808 424.293 731.411 389.181 751.362C405.325 747.079 446.29 741.611 481.001 754Z" fill="#E2B43C"/>
</g>
<path d="M481.001 754C465.024 744.808 424.293 731.411 389.181 751.362C405.325 747.079 446.29 741.611 481.001 754Z" stroke="#E2B43C"/>
<g filter="url(#filter13_i_1_5)">
<path d="M454.379 824.597C461.198 805.646 469.335 758.171 447.331 719.876C452.943 737.892 462.21 784.058 454.379 824.597Z" fill="#E2B43C"/>
</g>
<path d="M454.379 824.597C461.198 805.646 469.335 758.171 447.331 719.876C452.943 737.892 462.21 784.058 454.379 824.597Z" stroke="#E2B43C"/>
<g filter="url(#filter14_i_1_5)">
<path d="M409.17 827.041C418.557 809.218 433.833 763.094 419.843 721.18C422.059 740.117 423.028 787.801 409.17 827.041Z" fill="#E2B43C"/>
</g>
<path d="M409.17 827.041C418.557 809.218 433.833 763.094 419.843 721.18C422.059 740.117 423.028 787.801 409.17 827.041Z" stroke="#E2B43C"/>
<g filter="url(#filter15_i_1_5)">
<path d="M376 821.365C383.277 810.672 394.85 782.857 382.932 757.145C385.013 768.698 386.539 797.716 376 821.365Z" fill="#E2B43C"/>
</g>
<path d="M376 821.365C383.277 810.672 394.85 782.857 382.932 757.145C385.013 768.698 386.539 797.716 376 821.365Z" stroke="#E2B43C"/>
<g filter="url(#filter16_i_1_5)">
<path d="M480 818.307C486.654 808.45 497.245 782.815 486.373 759.133C488.267 769.776 489.643 796.51 480 818.307Z" fill="#E2B43C"/>
</g>
<path d="M480 818.307C486.654 808.45 497.245 782.815 486.373 759.133C488.267 769.776 489.643 796.51 480 818.307Z" stroke="#E2B43C"/>
<g filter="url(#filter17_i_1_5)">
<path d="M360.001 780.67C394.738 767.819 475.591 752.694 521.106 795C500.128 781.556 438.538 759.868 360.001 780.67Z" fill="#E2B43C"/>
</g>
<path d="M360.001 780.67C394.738 767.819 475.591 752.694 521.106 795C500.128 781.556 438.538 759.868 360.001 780.67Z" stroke="#E2B43C"/>
<g filter="url(#filter18_i_1_5)">
<path d="M330.001 809.241C377.507 795.714 488.08 779.792 550.325 824.321C521.636 810.17 437.407 787.344 330.001 809.241Z" fill="#E2B43C"/>
</g>
<path d="M330.001 809.241C377.507 795.714 488.08 779.792 550.325 824.321C521.636 810.17 437.407 787.344 330.001 809.241Z" stroke="#E2B43C"/>
<path d="M730.8 606H775.32L773.88 616.2H742.32V643.08H769.44L768 653.16H742.32V690H730.8V606ZM811.762 625.56C813.842 625.56 815.402 625.76 816.442 626.16C817.562 626.48 818.482 626.76 819.202 627C819.922 627.16 820.362 627.28 820.522 627.36L818.602 638.16C816.202 637.36 813.322 636.96 809.962 636.96C806.682 636.96 803.682 638.4 800.962 641.28C798.322 644.08 797.002 647.48 797.002 651.48V690H786.202V644.28L785.242 627.6L794.002 626.4L795.322 638.52H795.802C797.162 634.6 799.202 631.48 801.922 629.16C804.722 626.76 808.002 625.56 811.762 625.56ZM852.71 625.56C859.59 625.56 864.67 627.64 867.95 631.8C870.67 635.16 872.35 640.8 872.99 648.72C873.23 651.84 873.35 655.72 873.35 660.36L868.43 661.08H837.35C837.35 671.16 840.03 677.52 845.39 680.16C847.63 681.28 850.71 681.84 854.63 681.84C858.55 681.84 863.07 680.56 868.19 678L871.55 685.44C864.91 689.44 858.23 691.44 851.51 691.44C834.39 691.44 825.83 680.64 825.83 659.04C825.83 648.8 828.07 640.68 832.55 634.68C837.11 628.6 843.83 625.56 852.71 625.56ZM861.83 652.56C861.83 646.16 861.19 641.68 859.91 639.12C858.63 636.48 855.67 635.16 851.03 635.16C846.47 635.16 843.23 636.72 841.31 639.84C839.39 642.88 838.19 647.12 837.71 652.56H861.83ZM883.003 643.68C883.003 638.16 884.923 633.76 888.763 630.48C892.683 627.2 897.723 625.56 903.883 625.56C910.043 625.56 914.843 627.08 918.283 630.12C921.723 633.08 923.683 637.08 924.163 642.12L913.003 644.4C912.843 641.44 911.883 639.12 910.123 637.44C908.363 635.76 906.083 634.92 903.283 634.92C900.483 634.92 898.323 635.6 896.803 636.96C895.283 638.24 894.523 639.84 894.523 641.76C894.523 643.68 894.843 645.24 895.483 646.44C896.123 647.64 897.163 648.72 898.603 649.68C900.523 651.04 903.203 652.44 906.643 653.88C910.083 655.24 912.603 656.36 914.203 657.24C915.803 658.04 917.643 659.2 919.723 660.72C923.643 663.52 925.603 667.56 925.603 672.84C925.603 678.04 923.523 682.44 919.363 686.04C915.203 689.64 909.723 691.44 902.923 691.44C896.123 691.44 889.363 689.28 882.643 684.96L886.843 677.04C894.363 680.24 900.163 681.84 904.243 681.84C910.803 681.84 914.083 679.28 914.083 674.16C914.083 671.84 913.043 669.92 910.963 668.4C908.963 666.8 906.243 665.28 902.803 663.84C899.363 662.32 896.803 661.16 895.123 660.36C893.523 659.48 891.643 658.24 889.483 656.64C885.163 653.44 883.003 649.12 883.003 643.68ZM949.928 632.4C954.648 627.84 960.008 625.56 966.008 625.56C972.088 625.56 976.888 627.28 980.408 630.72C984.008 634.08 985.808 639.44 985.808 646.8V690H974.888V647.52C974.888 639.28 970.768 635.16 962.528 635.16C960.128 635.16 957.768 635.76 955.448 636.96C953.128 638.08 951.288 639.4 949.928 640.92V690H939.248V600.6L949.928 599.4V626.76L949.448 632.28L949.928 632.4Z" fill="url(#paint11_linear_1_5)"/>
<path d="M802.24 720.56C811.12 720.56 817.36 722.6 820.96 726.68C824.56 730.76 826.36 736.84 826.36 744.92L814.12 746.12C814.12 740.44 813.04 736.48 810.88 734.24C808.8 732 805.8 730.88 801.88 730.88C798.04 730.88 794.92 731.48 792.52 732.68C790.2 733.8 788.36 735.32 787 737.24C785.64 739.16 784.56 741.68 783.76 744.8C782.48 749.92 781.84 757.48 781.84 767.48C781.84 777.4 783.56 784.84 787 789.8C790.52 794.68 796.16 797.12 803.92 797.12C808.32 797.12 812.4 796.4 816.16 794.96V775.88H799.96L801.16 765.8H826.96V801.8C818.8 805.56 810.48 807.44 802 807.44C789.76 807.44 781.24 803.72 776.44 796.28C772.52 790.12 770.28 782.08 769.72 772.16C769.64 769.68 769.6 766.76 769.6 763.4C769.6 750.6 772.4 740.28 778 732.44C783.68 724.52 791.76 720.56 802.24 720.56ZM870.348 741.56C872.428 741.56 873.988 741.76 875.028 742.16C876.148 742.48 877.068 742.76 877.788 743C878.508 743.16 878.948 743.28 879.108 743.36L877.188 754.16C874.788 753.36 871.908 752.96 868.548 752.96C865.268 752.96 862.268 754.4 859.548 757.28C856.908 760.08 855.588 763.48 855.588 767.48V806H844.788V760.28L843.828 743.6L852.588 742.4L853.908 754.52H854.388C855.748 750.6 857.788 747.48 860.508 745.16C863.308 742.76 866.588 741.56 870.348 741.56ZM890.416 751.76C892.496 748.64 895.376 746.16 899.056 744.32C902.816 742.48 907.176 741.56 912.136 741.56C917.176 741.56 921.376 742.52 924.736 744.44C928.176 746.36 930.696 749.04 932.296 752.48C935.096 758.64 936.496 766.2 936.496 775.16C936.496 783.8 934.496 791.12 930.496 797.12C928.416 800.32 925.496 802.84 921.736 804.68C918.056 806.52 913.696 807.44 908.656 807.44C903.696 807.44 899.496 806.48 896.056 804.56C892.696 802.64 890.216 799.92 888.616 796.4C885.816 790.32 884.416 782.8 884.416 773.84C884.416 765.2 886.416 757.84 890.416 751.76ZM921.016 755.48C919.976 754.2 918.536 753.16 916.696 752.36C914.856 751.56 912.616 751.16 909.976 751.16C907.416 751.16 905.216 751.64 903.376 752.6C901.536 753.56 900.136 754.72 899.176 756.08C898.216 757.36 897.496 759.2 897.016 761.6C896.296 765.2 895.936 769.08 895.936 773.24C895.936 777.4 896.016 780.48 896.176 782.48C896.336 784.4 896.696 786.4 897.256 788.48C897.896 790.56 898.776 792.24 899.896 793.52C902.296 796.4 905.976 797.84 910.936 797.84C913.496 797.84 915.696 797.36 917.536 796.4C919.376 795.44 920.776 794.32 921.736 793.04C922.696 791.68 923.416 789.8 923.896 787.4C924.616 783.8 924.976 779.92 924.976 775.76C924.976 771.6 924.896 768.56 924.736 766.64C924.576 764.64 924.176 762.6 923.536 760.52C922.976 758.44 922.136 756.76 921.016 755.48ZM947.345 774.92C947.345 764.92 949.665 756.88 954.305 750.8C959.025 744.64 965.265 741.56 973.025 741.56C980.865 741.56 986.065 743.4 988.625 747.08C991.265 750.68 992.585 755.96 992.585 762.92L981.785 763.64C981.785 759.08 981.105 755.88 979.745 754.04C978.385 752.12 975.625 751.16 971.465 751.16C963.065 751.16 958.865 758.96 958.865 774.56C958.865 790.08 964.225 797.84 974.945 797.84C979.665 797.84 984.665 796.52 989.945 793.88L993.185 801.08C991.185 802.84 988.345 804.36 984.665 805.64C980.985 806.84 977.025 807.44 972.785 807.44C955.825 807.44 947.345 796.6 947.345 774.92ZM1017.42 806H1006.62V743.6L1017.42 742.4V806ZM1011.54 738.92C1006.66 738.92 1004.22 736.2 1004.22 730.76C1004.22 728.76 1004.86 727.04 1006.14 725.6C1007.5 724.16 1009.58 723.44 1012.38 723.44C1017.26 723.44 1019.7 726.16 1019.7 731.6C1019.7 733.6 1019.02 735.32 1017.66 736.76C1016.38 738.2 1014.34 738.92 1011.54 738.92ZM1059.3 741.56C1066.18 741.56 1071.26 743.64 1074.54 747.8C1077.26 751.16 1078.94 756.8 1079.58 764.72C1079.82 767.84 1079.94 771.72 1079.94 776.36L1075.02 777.08H1043.94C1043.94 787.16 1046.62 793.52 1051.98 796.16C1054.22 797.28 1057.3 797.84 1061.22 797.84C1065.14 797.84 1069.66 796.56 1074.78 794L1078.14 801.44C1071.5 805.44 1064.82 807.44 1058.1 807.44C1040.98 807.44 1032.42 796.64 1032.42 775.04C1032.42 764.8 1034.66 756.68 1039.14 750.68C1043.7 744.6 1050.42 741.56 1059.3 741.56ZM1068.42 768.56C1068.42 762.16 1067.78 757.68 1066.5 755.12C1065.22 752.48 1062.26 751.16 1057.62 751.16C1053.06 751.16 1049.82 752.72 1047.9 755.84C1045.98 758.88 1044.78 763.12 1044.3 768.56H1068.42Z" fill="url(#paint12_linear_1_5)"/>
</g>
<defs>
<filter id="filter0_d_1_5" x="255.949" y="671.517" width="134.202" height="49.0433" filterUnits="userSpaceOnUse" color-interpolation-filters="sRGB">
<feFlood flood-opacity="0" result="BackgroundImageFix"/>
<feColorMatrix in="SourceAlpha" type="matrix" values="0 0 0 0 0 0 0 0 0 0 0 0 0 0 0 0 0 0 127 0" result="hardAlpha"/>
<feOffset dy="2"/>
<feGaussianBlur stdDeviation="1"/>
<feComposite in2="hardAlpha" operator="out"/>
<feColorMatrix type="matrix" values="0 0 0 0 0 0 0 0 0 0 0 0 0 0 0 0 0 0 0.25 0"/>
<feBlend mode="normal" in2="BackgroundImageFix" result="effect1_dropShadow_1_5"/>
<feBlend mode="normal" in="SourceGraphic" in2="effect1_dropShadow_1_5" result="shape"/>
</filter>
<filter id="filter1_d_1_5" x="266.112" y="604.537" width="125.252" height="76.7294" filterUnits="userSpaceOnUse" color-interpolation-filters="sRGB">
<feFlood flood-opacity="0" result="BackgroundImageFix"/>
<feColorMatrix in="SourceAlpha" type="matrix" values="0 0 0 0 0 0 0 0 0 0 0 0 0 0 0 0 0 0 127 0" result="hardAlpha"/>
<feOffset dy="2"/>
<feGaussianBlur stdDeviation="1"/>
<feComposite in2="hardAlpha" operator="out"/>
<feColorMatrix type="matrix" values="0 0 0 0 0 0 0 0 0 0 0 0 0 0 0 0 0 0 0.25 0"/>
<feBlend mode="normal" in2="BackgroundImageFix" result="effect1_dropShadow_1_5"/>
<feBlend mode="normal" in="SourceGraphic" in2="effect1_dropShadow_1_5" result="shape"/>
</filter>
<filter id="filter2_d_1_5" x="269.861" y="698.552" width="123.612" height="83.0096" filterUnits="userSpaceOnUse" color-interpolation-filters="sRGB">
<feFlood flood-opacity="0" result="BackgroundImageFix"/>
<feColorMatrix in="SourceAlpha" type="matrix" values="0 0 0 0 0 0 0 0 0 0 0 0 0 0 0 0 0 0 127 0" result="hardAlpha"/>
<feOffset dy="2"/>
<feGaussianBlur stdDeviation="1"/>
<feComposite in2="hardAlpha" operator="out"/>
<feColorMatrix type="matrix" values="0 0 0 0 0 0 0 0 0 0 0 0 0 0 0 0 0 0 0.25 0"/>
<feBlend mode="normal" in2="BackgroundImageFix" result="effect1_dropShadow_1_5"/>
<feBlend mode="normal" in="SourceGraphic" in2="effect1_dropShadow_1_5" result="shape"/>
</filter>
<filter id="filter3_d_1_5" x="428" y="566" width="20" height="51" filterUnits="userSpaceOnUse" color-interpolation-filters="sRGB">
<feFlood flood-opacity="0" result="BackgroundImageFix"/>
<feColorMatrix in="SourceAlpha" type="matrix" values="0 0 0 0 0 0 0 0 0 0 0 0 0 0 0 0 0 0 127 0" result="hardAlpha"/>
<feOffset dy="2"/>
<feGaussianBlur stdDeviation="1"/>
<feComposite in2="hardAlpha" operator="out"/>
<feColorMatrix type="matrix" values="0 0 0 0 0 0 0 0 0 0 0 0 0 0 0 0 0 0 0.25 0"/>
<feBlend mode="normal" in2="BackgroundImageFix" result="effect1_dropShadow_1_5"/>
<feBlend mode="normal" in="SourceGraphic" in2="effect1_dropShadow_1_5" result="shape"/>
</filter>
<filter id="filter4_d_1_5" x="443.028" y="592.56" width="31.0191" height="45.6633" filterUnits="userSpaceOnUse" color-interpolation-filters="sRGB">
<feFlood flood-opacity="0" result="BackgroundImageFix"/>
<feColorMatrix in="SourceAlpha" type="matrix" values="0 0 0 0 0 0 0 0 0 0 0 0 0 0 0 0 0 0 127 0" result="hardAlpha"/>
<feOffset dy="2"/>
<feGaussianBlur stdDeviation="1"/>
<feComposite in2="hardAlpha" operator="out"/>
<feColorMatrix type="matrix" values="0 0 0 0 0 0 0 0 0 0 0 0 0 0 0 0 0 0 0.25 0"/>
<feBlend mode="normal" in2="BackgroundImageFix" result="effect1_dropShadow_1_5"/>
<feBlend mode="normal" in="SourceGraphic" in2="effect1_dropShadow_1_5" result="shape"/>
</filter>
<filter id="filter5_d_1_5" x="535.302" y="727.387" width="11.8109" height="11.1686" filterUnits="userSpaceOnUse" color-interpolation-filters="sRGB">
<feFlood flood-opacity="0" result="BackgroundImageFix"/>
<feColorMatrix in="SourceAlpha" type="matrix" values="0 0 0 0 0 0 0 0 0 0 0 0 0 0 0 0 0 0 127 0" result="hardAlpha"/>
<feOffset dy="2"/>
<feGaussianBlur stdDeviation="1"/>
<feComposite in2="hardAlpha" operator="out"/>
<feColorMatrix type="matrix" values="0 0 0 0 0 0 0 0 0 0 0 0 0 0 0 0 0 0 0.25 0"/>
<feBlend mode="normal" in2="BackgroundImageFix" result="effect1_dropShadow_1_5"/>
<feBlend mode="normal" in="SourceGraphic" in2="effect1_dropShadow_1_5" result="shape"/>
</filter>
<filter id="filter6_d_1_5" x="565.302" y="771.387" width="11.8109" height="11.1686" filterUnits="userSpaceOnUse" color-interpolation-filters="sRGB">
<feFlood flood-opacity="0" result="BackgroundImageFix"/>
<feColorMatrix in="SourceAlpha" type="matrix" values="0 0 0 0 0 0 0 0 0 0 0 0 0 0 0 0 0 0 127 0" result="hardAlpha"/>
<feOffset dy="2"/>
<feGaussianBlur stdDeviation="1"/>
<feComposite in2="hardAlpha" operator="out"/>
<feColorMatrix type="matrix" values="0 0 0 0 0 0 0 0 0 0 0 0 0 0 0 0 0 0 0.25 0"/>
<feBlend mode="normal" in2="BackgroundImageFix" result="effect1_dropShadow_1_5"/>
<feBlend mode="normal" in="SourceGraphic" in2="effect1_dropShadow_1_5" result="shape"/>
</filter>
<filter id="filter7_d_1_5" x="586.302" y="685.387" width="11.8109" height="11.1686" filterUnits="userSpaceOnUse" color-interpolation-filters="sRGB">
<feFlood flood-opacity="0" result="BackgroundImageFix"/>
<feColorMatrix in="SourceAlpha" type="matrix" values="0 0 0 0 0 0 0 0 0 0 0 0 0 0 0 0 0 0 127 0" result="hardAlpha"/>
<feOffset dy="2"/>
<feGaussianBlur stdDeviation="1"/>
<feComposite in2="hardAlpha" operator="out"/>
<feColorMatrix type="matrix" values="0 0 0 0 0 0 0 0 0 0 0 0 0 0 0 0 0 0 0.25 0"/>
<feBlend mode="normal" in2="BackgroundImageFix" result="effect1_dropShadow_1_5"/>
<feBlend mode="normal" in="SourceGraphic" in2="effect1_dropShadow_1_5" result="shape"/>
</filter>
<filter id="filter8_d_1_5" x="586.302" y="685.387" width="11.8109" height="11.1686" filterUnits="userSpaceOnUse" color-interpolation-filters="sRGB">
<feFlood flood-opacity="0" result="BackgroundImageFix"/>
<feColorMatrix in="SourceAlpha" type="matrix" values="0 0 0 0 0 0 0 0 0 0 0 0 0 0 0 0 0 0 127 0" result="hardAlpha"/>
<feOffset dy="2"/>
<feGaussianBlur stdDeviation="1"/>
<feComposite in2="hardAlpha" operator="out"/>
<feColorMatrix type="matrix" values="0 0 0 0 0 0 0 0 0 0 0 0 0 0 0 0 0 0 0.25 0"/>
<feBlend mode="normal" in2="BackgroundImageFix" result="effect1_dropShadow_1_5"/>
<feBlend mode="normal" in="SourceGraphic" in2="effect1_dropShadow_1_5" result="shape"/>
</filter>
<filter id="filter9_d_1_5" x="588.302" y="604.387" width="11.8109" height="11.1686" filterUnits="userSpaceOnUse" color-interpolation-filters="sRGB">
<feFlood flood-opacity="0" result="BackgroundImageFix"/>
<feColorMatrix in="SourceAlpha" type="matrix" values="0 0 0 0 0 0 0 0 0 0 0 0 0 0 0 0 0 0 127 0" result="hardAlpha"/>
<feOffset dy="2"/>
<feGaussianBlur stdDeviation="1"/>
<feComposite in2="hardAlpha" operator="out"/>
<feColorMatrix type="matrix" values="0 0 0 0 0 0 0 0 0 0 0 0 0 0 0 0 0 0 0.25 0"/>
<feBlend mode="normal" in2="BackgroundImageFix" result="effect1_dropShadow_1_5"/>
<feBlend mode="normal" in="SourceGraphic" in2="effect1_dropShadow_1_5" result="shape"/>
</filter>
<filter id="filter10_d_1_5" x="542.302" y="644.387" width="11.8109" height="11.1686" filterUnits="userSpaceOnUse" color-interpolation-filters="sRGB">
<feFlood flood-opacity="0" result="BackgroundImageFix"/>
<feColorMatrix in="SourceAlpha" type="matrix" values="0 0 0 0 0 0 0 0 0 0 0 0 0 0 0 0 0 0 127 0" result="hardAlpha"/>
<feOffset dy="2"/>
<feGaussianBlur stdDeviation="1"/>
<feComposite in2="hardAlpha" operator="out"/>
<feColorMatrix type="matrix" values="0 0 0 0 0 0 0 0 0 0 0 0 0 0 0 0 0 0 0.25 0"/>
<feBlend mode="normal" in2="BackgroundImageFix" result="effect1_dropShadow_1_5"/>
<feBlend mode="normal" in="SourceGraphic" in2="effect1_dropShadow_1_5" result="shape"/>
</filter>
<filter id="filter11_d_1_5" x="398.053" y="592.925" width="33.2089" height="44.1609" filterUnits="userSpaceOnUse" color-interpolation-filters="sRGB">
<feFlood flood-opacity="0" result="BackgroundImageFix"/>
<feColorMatrix in="SourceAlpha" type="matrix" values="0 0 0 0 0 0 0 0 0 0 0 0 0 0 0 0 0 0 127 0" result="hardAlpha"/>
<feOffset dy="2"/>
<feGaussianBlur stdDeviation="1"/>
<feComposite in2="hardAlpha" operator="out"/>
<feColorMatrix type="matrix" values="0 0 0 0 0 0 0 0 0 0 0 0 0 0 0 0 0 0 0.25 0"/>
<feBlend mode="normal" in2="BackgroundImageFix" result="effect1_dropShadow_1_5"/>
<feBlend mode="normal" in="SourceGraphic" in2="effect1_dropShadow_1_5" result="shape"/>
</filter>
<filter id="filter12_i_1_5" x="388.934" y="740.504" width="92.3165" height="17.9671" filterUnits="userSpaceOnUse" color-interpolation-filters="sRGB">
<feFlood flood-opacity="0" result="BackgroundImageFix"/>
<feBlend mode="normal" in="SourceGraphic" in2="BackgroundImageFix" result="shape"/>
<feColorMatrix in="SourceAlpha" type="matrix" values="0 0 0 0 0 0 0 0 0 0 0 0 0 0 0 0 0 0 127 0" result="hardAlpha"/>
<feOffset dy="4"/>
<feGaussianBlur stdDeviation="2"/>
<feComposite in2="hardAlpha" operator="arithmetic" k2="-1" k3="1"/>
<feColorMatrix type="matrix" values="0 0 0 0 0 0 0 0 0 0 0 0 0 0 0 0 0 0 0.25 0"/>
<feBlend mode="normal" in2="shape" result="effect1_innerShadow_1_5"/>
</filter>
<filter id="filter13_i_1_5" x="446.854" y="719.627" width="15.3135" height="109.14" filterUnits="userSpaceOnUse" color-interpolation-filters="sRGB">
<feFlood flood-opacity="0" result="BackgroundImageFix"/>
<feBlend mode="normal" in="SourceGraphic" in2="BackgroundImageFix" result="shape"/>
<feColorMatrix in="SourceAlpha" type="matrix" values="0 0 0 0 0 0 0 0 0 0 0 0 0 0 0 0 0 0 127 0" result="hardAlpha"/>
<feOffset dy="4"/>
<feGaussianBlur stdDeviation="2"/>
<feComposite in2="hardAlpha" operator="arithmetic" k2="-1" k3="1"/>
<feColorMatrix type="matrix" values="0 0 0 0 0 0 0 0 0 0 0 0 0 0 0 0 0 0 0.25 0"/>
<feBlend mode="normal" in2="shape" result="effect1_innerShadow_1_5"/>
</filter>
<filter id="filter14_i_1_5" x="408.699" y="721.022" width="17.2892" height="110.252" filterUnits="userSpaceOnUse" color-interpolation-filters="sRGB">
<feFlood flood-opacity="0" result="BackgroundImageFix"/>
<feBlend mode="normal" in="SourceGraphic" in2="BackgroundImageFix" result="shape"/>
<feColorMatrix in="SourceAlpha" type="matrix" values="0 0 0 0 0 0 0 0 0 0 0 0 0 0 0 0 0 0 127 0" result="hardAlpha"/>
<feOffset dy="4"/>
<feGaussianBlur stdDeviation="2"/>
<feComposite in2="hardAlpha" operator="arithmetic" k2="-1" k3="1"/>
<feColorMatrix type="matrix" values="0 0 0 0 0 0 0 0 0 0 0 0 0 0 0 0 0 0 0.25 0"/>
<feBlend mode="normal" in2="shape" result="effect1_innerShadow_1_5"/>
</filter>
<filter id="filter15_i_1_5" x="375.543" y="756.935" width="13.028" height="68.7115" filterUnits="userSpaceOnUse" color-interpolation-filters="sRGB">
<feFlood flood-opacity="0" result="BackgroundImageFix"/>
<feBlend mode="normal" in="SourceGraphic" in2="BackgroundImageFix" result="shape"/>
<feColorMatrix in="SourceAlpha" type="matrix" values="0 0 0 0 0 0 0 0 0 0 0 0 0 0 0 0 0 0 127 0" result="hardAlpha"/>
<feOffset dy="4"/>
<feGaussianBlur stdDeviation="2"/>
<feComposite in2="hardAlpha" operator="arithmetic" k2="-1" k3="1"/>
<feColorMatrix type="matrix" values="0 0 0 0 0 0 0 0 0 0 0 0 0 0 0 0 0 0 0.25 0"/>
<feBlend mode="normal" in2="shape" result="effect1_innerShadow_1_5"/>
</filter>
<filter id="filter16_i_1_5" x="479.543" y="758.924" width="12.01" height="63.662" filterUnits="userSpaceOnUse" color-interpolation-filters="sRGB">
<feFlood flood-opacity="0" result="BackgroundImageFix"/>
<feBlend mode="normal" in="SourceGraphic" in2="BackgroundImageFix" result="shape"/>
<feColorMatrix in="SourceAlpha" type="matrix" values="0 0 0 0 0 0 0 0 0 0 0 0 0 0 0 0 0 0 127 0" result="hardAlpha"/>
<feOffset dy="4"/>
<feGaussianBlur stdDeviation="2"/>
<feComposite in2="hardAlpha" operator="arithmetic" k2="-1" k3="1"/>
<feColorMatrix type="matrix" values="0 0 0 0 0 0 0 0 0 0 0 0 0 0 0 0 0 0 0.25 0"/>
<feBlend mode="normal" in2="shape" result="effect1_innerShadow_1_5"/>
</filter>
<filter id="filter17_i_1_5" x="359.828" y="766.65" width="161.619" height="32.7706" filterUnits="userSpaceOnUse" color-interpolation-filters="sRGB">
<feFlood flood-opacity="0" result="BackgroundImageFix"/>
<feBlend mode="normal" in="SourceGraphic" in2="BackgroundImageFix" result="shape"/>
<feColorMatrix in="SourceAlpha" type="matrix" values="0 0 0 0 0 0 0 0 0 0 0 0 0 0 0 0 0 0 127 0" result="hardAlpha"/>
<feOffset dy="4"/>
<feGaussianBlur stdDeviation="2"/>
<feComposite in2="hardAlpha" operator="arithmetic" k2="-1" k3="1"/>
<feColorMatrix type="matrix" values="0 0 0 0 0 0 0 0 0 0 0 0 0 0 0 0 0 0 0.25 0"/>
<feBlend mode="normal" in2="shape" result="effect1_innerShadow_1_5"/>
</filter>
<filter id="filter18_i_1_5" x="329.864" y="794.509" width="220.752" height="34.2601" filterUnits="userSpaceOnUse" color-interpolation-filters="sRGB">
<feFlood flood-opacity="0" result="BackgroundImageFix"/>
<feBlend mode="normal" in="SourceGraphic" in2="BackgroundImageFix" result="shape"/>
<feColorMatrix in="SourceAlpha" type="matrix" values="0 0 0 0 0 0 0 0 0 0 0 0 0 0 0 0 0 0 127 0" result="hardAlpha"/>
<feOffset dy="4"/>
<feGaussianBlur stdDeviation="2"/>
<feComposite in2="hardAlpha" operator="arithmetic" k2="-1" k3="1"/>
<feColorMatrix type="matrix" values="0 0 0 0 0 0 0 0 0 0 0 0 0 0 0 0 0 0 0.25 0"/>
<feBlend mode="normal" in2="shape" result="effect1_innerShadow_1_5"/>
</filter>
<linearGradient id="paint0_linear_1_5" x1="591.827" y1="210.503" x2="557.926" y2="452.99" gradientUnits="userSpaceOnUse">
<stop stop-color="#FEE4A1"/>
<stop offset="0.748542" stop-color="#98A354"/>
</linearGradient>
<linearGradient id="paint1_linear_1_5" x1="325.161" y1="246.38" x2="439.099" y2="458.26" gradientUnits="userSpaceOnUse">
<stop offset="0.135775" stop-color="#FEE4A1"/>
<stop offset="0.541718" stop-color="#98A354"/>
</linearGradient>
<radialGradient id="paint2_radial_1_5" cx="0" cy="0" r="1" gradientUnits="userSpaceOnUse" gradientTransform="translate(438 589.5) rotate(90) scale(29.9625 10.2)">
<stop offset="0.211458" stop-color="white"/>
<stop offset="1" stop-color="#98A354"/>
</radialGradient>
<radialGradient id="paint3_radial_1_5" cx="0" cy="0" r="1" gradientUnits="userSpaceOnUse" gradientTransform="translate(458.537 613.392) rotate(90) scale(29.9625 10.2)">
<stop offset="0.211458" stop-color="white"/>
<stop offset="1" stop-color="#98A354"/>
</radialGradient>
<radialGradient id="paint4_radial_1_5" cx="0" cy="0" r="1" gradientUnits="userSpaceOnUse" gradientTransform="translate(541.208 730.972) rotate(90) scale(4.3636 5.15977)">
<stop offset="0.211458" stop-color="white"/>
<stop offset="1" stop-color="#98A354"/>
</radialGradient>
<radialGradient id="paint5_radial_1_5" cx="0" cy="0" r="1" gradientUnits="userSpaceOnUse" gradientTransform="translate(571.208 774.972) rotate(90) scale(4.3636 5.15977)">
<stop offset="0.211458" stop-color="white"/>
<stop offset="1" stop-color="#98A354"/>
</radialGradient>
<radialGradient id="paint6_radial_1_5" cx="0" cy="0" r="1" gradientUnits="userSpaceOnUse" gradientTransform="translate(592.208 688.972) rotate(90) scale(4.3636 5.15977)">
<stop offset="0.211458" stop-color="white"/>
<stop offset="1" stop-color="#98A354"/>
</radialGradient>
<radialGradient id="paint7_radial_1_5" cx="0" cy="0" r="1" gradientUnits="userSpaceOnUse" gradientTransform="translate(592.208 688.972) rotate(90) scale(4.3636 5.15977)">
<stop offset="0.211458" stop-color="white"/>
<stop offset="1" stop-color="#98A354"/>
</radialGradient>
<radialGradient id="paint8_radial_1_5" cx="0" cy="0" r="1" gradientUnits="userSpaceOnUse" gradientTransform="translate(594.208 607.972) rotate(90) scale(4.3636 5.15977)">
<stop offset="0.211458" stop-color="white"/>
<stop offset="1" stop-color="#98A354"/>
</radialGradient>
<radialGradient id="paint9_radial_1_5" cx="0" cy="0" r="1" gradientUnits="userSpaceOnUse" gradientTransform="translate(548.208 647.972) rotate(90) scale(4.3636 5.15977)">
<stop offset="0.211458" stop-color="white"/>
<stop offset="1" stop-color="#98A354"/>
</radialGradient>
<radialGradient id="paint10_radial_1_5" cx="0" cy="0" r="1" gradientUnits="userSpaceOnUse" gradientTransform="translate(414.657 613.005) rotate(90) scale(29.9625 10.2)">
<stop offset="0.211458" stop-color="white"/>
<stop offset="1" stop-color="#98A354"/>
</radialGradient>
<linearGradient id="paint11_linear_1_5" x1="775.5" y1="552.959" x2="840.985" y2="769.269" gradientUnits="userSpaceOnUse">
<stop stop-color="#F9CC56"/>
<stop offset="0.668825" stop-color="#98A354"/>
</linearGradient>
<linearGradient id="paint12_linear_1_5" x1="938.938" y1="703.5" x2="906.707" y2="831.457" gradientUnits="userSpaceOnUse">
<stop offset="0.379269" stop-color="#98A354"/>
<stop offset="0.865036" stop-color="#F9CC56"/>
</linearGradient>
<clipPath id="clip0_1_5">
<rect width="1249" height="1214" fill="white"/>
</clipPath>
</defs>
</svg>
