<svg width="165" height="60" viewBox="0 0 165 60" fill="none" xmlns="http://www.w3.org/2000/svg">
<rect width="165" height="60" rx="6.31579" fill="black"/>
<g clip-path="url(#clip0_8_157)">
<path d="M28.7533 27.9658L16.5091 16.1379C16.2831 15.9196 16.1523 15.6158 16.1477 15.2996C16.1346 14.3945 17.0935 13.8035 17.883 14.219L33.7486 22.5681C34.4623 22.9437 34.6 23.9074 34.0199 24.4678L30.3988 27.9658C29.9398 28.4091 29.2122 28.4091 28.7533 27.9658Z" fill="white" stroke="black" stroke-width="0.789474"/>
<path d="M16.1736 19.7003C16.1689 18.6552 17.4243 18.1186 18.1792 18.8474L28.1334 28.4578C28.6155 28.9233 28.6156 29.6958 28.1336 30.1614L18.271 39.6887C17.5211 40.4132 16.2684 39.885 16.2635 38.8423C16.2528 36.5405 16.2404 33.9185 16.2277 31.2533C16.2083 27.1722 16.1884 22.9897 16.1736 19.7003Z" fill="white" stroke="black" stroke-width="0.789474"/>
<path d="M31.0194 28.4579L35.2735 24.3535C35.6566 23.9838 36.2393 23.9153 36.6977 24.1859L44.6307 28.8687C45.4027 29.3244 45.408 30.4394 44.6404 30.9025L37.5066 35.2056C37.047 35.4829 36.4583 35.4163 36.0722 35.0434L31.0189 30.1619C30.5367 29.6961 30.537 28.9234 31.0194 28.4579Z" fill="white" stroke="black" stroke-width="0.789474"/>
<path d="M30.3985 30.6602L34.8604 34.9704C35.4348 35.5253 35.3064 36.4782 34.6055 36.8612L18.0248 45.9226C17.2356 46.3538 16.2727 45.7827 16.2727 44.8834V43.2121C16.2727 42.8908 16.4032 42.5833 16.6344 42.3601L28.7532 30.6599C29.2121 30.2168 29.9396 30.2169 30.3985 30.6602Z" fill="white" stroke="black" stroke-width="0.789474"/>
</g>
<path d="M59.6052 19.9368H55.7652L55.0579 21.8947H53.8452L57.0284 13.1411H58.3547L61.5252 21.8947H60.3126L59.6052 19.9368ZM59.2768 19.0021L57.6852 14.5558L56.0937 19.0021H59.2768ZM65.6157 20.8337L67.7631 14.9726H68.9883L66.2726 21.8947H64.9336L62.2178 14.9726H63.4557L65.6157 20.8337ZM69.8163 18.4084C69.8163 17.7011 69.9595 17.0821 70.2458 16.5516C70.5321 16.0126 70.9237 15.5958 71.4205 15.3011C71.9258 15.0063 72.4858 14.8589 73.1005 14.8589C73.7068 14.8589 74.2331 14.9895 74.6795 15.2505C75.1258 15.5116 75.4584 15.84 75.6774 16.2358V14.9726H76.8395V21.8947H75.6774V20.6063C75.45 21.0105 75.1089 21.3474 74.6542 21.6168C74.2079 21.8779 73.6858 22.0084 73.0879 22.0084C72.4731 22.0084 71.9174 21.8568 71.4205 21.5537C70.9237 21.2505 70.5321 20.8253 70.2458 20.2779C69.9595 19.7305 69.8163 19.1074 69.8163 18.4084ZM75.6774 18.4211C75.6774 17.8989 75.5721 17.4442 75.3616 17.0568C75.151 16.6695 74.8647 16.3747 74.5026 16.1726C74.1489 15.9621 73.7574 15.8568 73.3279 15.8568C72.8984 15.8568 72.5068 15.9579 72.1531 16.16C71.7995 16.3621 71.5174 16.6568 71.3068 17.0442C71.0963 17.4316 70.991 17.8863 70.991 18.4084C70.991 18.9389 71.0963 19.4021 71.3068 19.7979C71.5174 20.1853 71.7995 20.4842 72.1531 20.6947C72.5068 20.8968 72.8984 20.9979 73.3279 20.9979C73.7574 20.9979 74.1489 20.8968 74.5026 20.6947C74.8647 20.4842 75.151 20.1853 75.3616 19.7979C75.5721 19.4021 75.6774 18.9432 75.6774 18.4211ZM79.502 13.8484C79.283 13.8484 79.0977 13.7726 78.9462 13.6211C78.7946 13.4695 78.7188 13.2842 78.7188 13.0653C78.7188 12.8463 78.7946 12.6611 78.9462 12.5095C79.0977 12.3579 79.283 12.2821 79.502 12.2821C79.7125 12.2821 79.8893 12.3579 80.0325 12.5095C80.1841 12.6611 80.2599 12.8463 80.2599 13.0653C80.2599 13.2842 80.1841 13.4695 80.0325 13.6211C79.8893 13.7726 79.7125 13.8484 79.502 13.8484ZM80.0577 14.9726V21.8947H78.9083V14.9726H80.0577ZM83.2926 12.5474V21.8947H82.1431V12.5474H83.2926ZM84.9485 18.4084C84.9485 17.7011 85.0917 17.0821 85.378 16.5516C85.6643 16.0126 86.0559 15.5958 86.5527 15.3011C87.058 15.0063 87.618 14.8589 88.2327 14.8589C88.8391 14.8589 89.3654 14.9895 89.8117 15.2505C90.258 15.5116 90.5906 15.84 90.8096 16.2358V14.9726H91.9717V21.8947H90.8096V20.6063C90.5822 21.0105 90.2412 21.3474 89.7864 21.6168C89.3401 21.8779 88.818 22.0084 88.2201 22.0084C87.6054 22.0084 87.0496 21.8568 86.5527 21.5537C86.0559 21.2505 85.6643 20.8253 85.378 20.2779C85.0917 19.7305 84.9485 19.1074 84.9485 18.4084ZM90.8096 18.4211C90.8096 17.8989 90.7043 17.4442 90.4938 17.0568C90.2833 16.6695 89.997 16.3747 89.6349 16.1726C89.2812 15.9621 88.8896 15.8568 88.4601 15.8568C88.0306 15.8568 87.6391 15.9579 87.2854 16.16C86.9317 16.3621 86.6496 16.6568 86.4391 17.0442C86.2285 17.4316 86.1233 17.8863 86.1233 18.4084C86.1233 18.9389 86.2285 19.4021 86.4391 19.7979C86.6496 20.1853 86.9317 20.4842 87.2854 20.6947C87.6391 20.8968 88.0306 20.9979 88.4601 20.9979C88.8896 20.9979 89.2812 20.8968 89.6349 20.6947C89.997 20.4842 90.2833 20.1853 90.4938 19.7979C90.7043 19.4021 90.8096 18.9432 90.8096 18.4211ZM95.19 16.2611C95.4258 15.8484 95.771 15.5116 96.2258 15.2505C96.6805 14.9895 97.1984 14.8589 97.7795 14.8589C98.4026 14.8589 98.9626 15.0063 99.4595 15.3011C99.9563 15.5958 100.348 16.0126 100.634 16.5516C100.921 17.0821 101.064 17.7011 101.064 18.4084C101.064 19.1074 100.921 19.7305 100.634 20.2779C100.348 20.8253 99.9521 21.2505 99.4468 21.5537C98.95 21.8568 98.3942 22.0084 97.7795 22.0084C97.1816 22.0084 96.6552 21.8779 96.2005 21.6168C95.7542 21.3558 95.4174 21.0232 95.19 20.6189V21.8947H94.0405V12.5474H95.19V16.2611ZM99.8889 18.4084C99.8889 17.8863 99.7837 17.4316 99.5731 17.0442C99.3626 16.6568 99.0763 16.3621 98.7142 16.16C98.3605 15.9579 97.9689 15.8568 97.5395 15.8568C97.1184 15.8568 96.7268 15.9621 96.3647 16.1726C96.011 16.3747 95.7247 16.6737 95.5058 17.0695C95.2952 17.4568 95.19 17.9074 95.19 18.4211C95.19 18.9432 95.2952 19.4021 95.5058 19.7979C95.7247 20.1853 96.011 20.4842 96.3647 20.6947C96.7268 20.8968 97.1184 20.9979 97.5395 20.9979C97.9689 20.9979 98.3605 20.8968 98.7142 20.6947C99.0763 20.4842 99.3626 20.1853 99.5731 19.7979C99.7837 19.4021 99.8889 18.9389 99.8889 18.4084ZM103.852 12.5474V21.8947H102.703V12.5474H103.852ZM112.254 18.1684C112.254 18.3874 112.241 18.6189 112.216 18.8632H106.683C106.725 19.5453 106.957 20.08 107.378 20.4674C107.807 20.8463 108.325 21.0358 108.932 21.0358C109.428 21.0358 109.841 20.9221 110.169 20.6947C110.506 20.4589 110.742 20.1474 110.877 19.76H112.115C111.929 20.4253 111.559 20.9684 111.003 21.3895C110.447 21.8021 109.757 22.0084 108.932 22.0084C108.275 22.0084 107.685 21.8611 107.163 21.5663C106.649 21.2716 106.245 20.8547 105.951 20.3158C105.656 19.7684 105.508 19.1368 105.508 18.4211C105.508 17.7053 105.652 17.0779 105.938 16.5389C106.224 16 106.624 15.5874 107.138 15.3011C107.66 15.0063 108.258 14.8589 108.932 14.8589C109.588 14.8589 110.169 15.0021 110.675 15.2884C111.18 15.5747 111.567 15.9705 111.837 16.4758C112.115 16.9726 112.254 17.5368 112.254 18.1684ZM111.066 17.9284C111.066 17.4905 110.969 17.1158 110.776 16.8042C110.582 16.4842 110.317 16.2442 109.98 16.0842C109.652 15.9158 109.285 15.8316 108.881 15.8316C108.3 15.8316 107.803 16.0168 107.391 16.3874C106.986 16.7579 106.755 17.2716 106.696 17.9284H111.066ZM120.41 22.0084C119.762 22.0084 119.172 21.8611 118.642 21.5663C118.12 21.2716 117.707 20.8547 117.404 20.3158C117.109 19.7684 116.962 19.1368 116.962 18.4211C116.962 17.7137 117.113 17.0905 117.416 16.5516C117.728 16.0042 118.149 15.5874 118.68 15.3011C119.21 15.0063 119.804 14.8589 120.461 14.8589C121.117 14.8589 121.711 15.0063 122.242 15.3011C122.772 15.5874 123.189 16 123.492 16.5389C123.804 17.0779 123.96 17.7053 123.96 18.4211C123.96 19.1368 123.8 19.7684 123.48 20.3158C123.168 20.8547 122.743 21.2716 122.204 21.5663C121.665 21.8611 121.067 22.0084 120.41 22.0084ZM120.41 20.9979C120.823 20.9979 121.21 20.9011 121.572 20.7074C121.934 20.5137 122.225 20.2232 122.444 19.8358C122.671 19.4484 122.785 18.9768 122.785 18.4211C122.785 17.8653 122.675 17.3937 122.456 17.0063C122.237 16.6189 121.951 16.3326 121.597 16.1474C121.244 15.9537 120.861 15.8568 120.448 15.8568C120.027 15.8568 119.64 15.9537 119.286 16.1474C118.941 16.3326 118.663 16.6189 118.452 17.0063C118.242 17.3937 118.136 17.8653 118.136 18.4211C118.136 18.9853 118.237 19.4611 118.44 19.8484C118.65 20.2358 118.928 20.5263 119.273 20.72C119.619 20.9053 119.997 20.9979 120.41 20.9979ZM128.97 14.8463C129.812 14.8463 130.494 15.1032 131.016 15.6168C131.538 16.1221 131.799 16.8547 131.799 17.8147V21.8947H130.663V17.9789C130.663 17.2884 130.49 16.7621 130.145 16.4C129.799 16.0295 129.328 15.8442 128.73 15.8442C128.124 15.8442 127.639 16.0337 127.277 16.4126C126.924 16.7916 126.747 17.3432 126.747 18.0674V21.8947H125.597V14.9726H126.747V15.9579C126.974 15.6042 127.281 15.3305 127.669 15.1368C128.065 14.9432 128.498 14.8463 128.97 14.8463Z" fill="#949494"/>
<path d="M62.5547 37.0263C62.2705 36.4789 61.8758 36.0684 61.3705 35.7947C60.8652 35.5105 60.281 35.3684 59.6179 35.3684C58.8916 35.3684 58.2442 35.5316 57.6758 35.8579C57.1074 36.1842 56.66 36.6474 56.3337 37.2474C56.0179 37.8474 55.86 38.5421 55.86 39.3316C55.86 40.121 56.0179 40.821 56.3337 41.4316C56.66 42.0316 57.1074 42.4947 57.6758 42.821C58.2442 43.1474 58.8916 43.3105 59.6179 43.3105C60.5968 43.3105 61.3916 43.0368 62.0021 42.4895C62.6126 41.9421 62.9863 41.2 63.1231 40.2632H59.0021V38.8263H65.0495V40.2316C64.9337 41.0842 64.6284 41.8684 64.1337 42.5842C63.6495 43.3 63.0126 43.8737 62.2231 44.3053C61.4442 44.7263 60.5758 44.9368 59.6179 44.9368C58.5863 44.9368 57.6442 44.7 56.7916 44.2263C55.9389 43.7421 55.26 43.0737 54.7547 42.221C54.26 41.3684 54.0126 40.4053 54.0126 39.3316C54.0126 38.2579 54.26 37.2947 54.7547 36.4421C55.26 35.5895 55.9389 34.9263 56.7916 34.4526C57.6547 33.9684 58.5968 33.7263 59.6179 33.7263C60.7863 33.7263 61.8231 34.0158 62.7284 34.5947C63.6442 35.1632 64.3074 35.9737 64.7179 37.0263H62.5547ZM70.7564 44.9842C69.9353 44.9842 69.1932 44.8 68.5301 44.4316C67.8669 44.0526 67.3458 43.5263 66.9669 42.8526C66.5879 42.1684 66.3985 41.3789 66.3985 40.4842C66.3985 39.6 66.5932 38.8158 66.9827 38.1316C67.3722 37.4474 67.9037 36.921 68.5774 36.5526C69.2511 36.1842 70.0037 36 70.8353 36C71.6669 36 72.4195 36.1842 73.0932 36.5526C73.7669 36.921 74.2985 37.4474 74.6879 38.1316C75.0774 38.8158 75.2722 39.6 75.2722 40.4842C75.2722 41.3684 75.0722 42.1526 74.6722 42.8368C74.2722 43.521 73.7248 44.0526 73.0301 44.4316C72.3458 44.8 71.5879 44.9842 70.7564 44.9842ZM70.7564 43.421C71.2195 43.421 71.6511 43.3105 72.0511 43.0895C72.4616 42.8684 72.7932 42.5368 73.0458 42.0947C73.2985 41.6526 73.4248 41.1158 73.4248 40.4842C73.4248 39.8526 73.3037 39.321 73.0616 38.8895C72.8195 38.4474 72.4985 38.1158 72.0985 37.8947C71.6985 37.6737 71.2669 37.5632 70.8037 37.5632C70.3406 37.5632 69.909 37.6737 69.509 37.8947C69.1195 38.1158 68.809 38.4474 68.5774 38.8895C68.3458 39.321 68.2301 39.8526 68.2301 40.4842C68.2301 41.421 68.4669 42.1474 68.9406 42.6632C69.4248 43.1684 70.0301 43.421 70.7564 43.421ZM80.9831 44.9842C80.1621 44.9842 79.42 44.8 78.7568 44.4316C78.0937 44.0526 77.5726 43.5263 77.1937 42.8526C76.8147 42.1684 76.6252 41.3789 76.6252 40.4842C76.6252 39.6 76.82 38.8158 77.2095 38.1316C77.5989 37.4474 78.1305 36.921 78.8042 36.5526C79.4779 36.1842 80.2305 36 81.0621 36C81.8937 36 82.6463 36.1842 83.32 36.5526C83.9937 36.921 84.5252 37.4474 84.9147 38.1316C85.3042 38.8158 85.4989 39.6 85.4989 40.4842C85.4989 41.3684 85.2989 42.1526 84.8989 42.8368C84.4989 43.521 83.9516 44.0526 83.2568 44.4316C82.5726 44.8 81.8147 44.9842 80.9831 44.9842ZM80.9831 43.421C81.4463 43.421 81.8779 43.3105 82.2779 43.0895C82.6884 42.8684 83.02 42.5368 83.2726 42.0947C83.5252 41.6526 83.6516 41.1158 83.6516 40.4842C83.6516 39.8526 83.5305 39.321 83.2884 38.8895C83.0463 38.4474 82.7252 38.1158 82.3252 37.8947C81.9252 37.6737 81.4937 37.5632 81.0305 37.5632C80.5673 37.5632 80.1358 37.6737 79.7358 37.8947C79.3463 38.1158 79.0358 38.4474 78.8042 38.8895C78.5726 39.321 78.4568 39.8526 78.4568 40.4842C78.4568 41.421 78.6937 42.1474 79.1673 42.6632C79.6516 43.1684 80.2568 43.421 80.9831 43.421ZM90.9415 36C91.6152 36 92.2099 36.1368 92.7257 36.4105C93.252 36.6737 93.6625 37.0053 93.9573 37.4053V36.1421H95.7731V44.9842C95.7731 45.7842 95.6046 46.4947 95.2678 47.1158C94.931 47.7474 94.4415 48.2421 93.7994 48.6C93.1678 48.9579 92.4099 49.1368 91.5257 49.1368C90.3467 49.1368 89.3678 48.8579 88.5888 48.3C87.8099 47.7526 87.3678 47.0053 87.2625 46.0579H89.0467C89.1836 46.5105 89.4731 46.8737 89.9152 47.1474C90.3678 47.4316 90.9046 47.5737 91.5257 47.5737C92.252 47.5737 92.8362 47.3526 93.2783 46.9105C93.731 46.4684 93.9573 45.8263 93.9573 44.9842V43.5316C93.652 43.9421 93.2362 44.2895 92.7099 44.5737C92.1941 44.8474 91.6046 44.9842 90.9415 44.9842C90.1836 44.9842 89.4888 44.7947 88.8573 44.4158C88.2362 44.0263 87.7415 43.4895 87.3731 42.8053C87.0152 42.1105 86.8362 41.3263 86.8362 40.4526C86.8362 39.5789 87.0152 38.8053 87.3731 38.1316C87.7415 37.4579 88.2362 36.9368 88.8573 36.5684C89.4888 36.1895 90.1836 36 90.9415 36ZM93.9573 40.4842C93.9573 39.8842 93.831 39.3632 93.5783 38.921C93.3362 38.4789 93.0152 38.1421 92.6152 37.9105C92.2152 37.6789 91.7836 37.5632 91.3204 37.5632C90.8573 37.5632 90.4257 37.6789 90.0257 37.9105C89.6257 38.1316 89.2994 38.4632 89.0467 38.9053C88.8046 39.3368 88.6836 39.8526 88.6836 40.4526C88.6836 41.0526 88.8046 41.5789 89.0467 42.0316C89.2994 42.4842 89.6257 42.8316 90.0257 43.0737C90.4362 43.3053 90.8678 43.421 91.3204 43.421C91.7836 43.421 92.2152 43.3053 92.6152 43.0737C93.0152 42.8421 93.3362 42.5053 93.5783 42.0632C93.831 41.6105 93.9573 41.0842 93.9573 40.4842ZM100.095 33.1579V44.8421H98.2952V33.1579H100.095ZM110.59 40.2789C110.59 40.6053 110.569 40.9 110.527 41.1632H103.879C103.932 41.8579 104.19 42.4158 104.653 42.8368C105.116 43.2579 105.685 43.4684 106.358 43.4684C107.327 43.4684 108.011 43.0632 108.411 42.2526H110.353C110.09 43.0526 109.611 43.7105 108.916 44.2263C108.232 44.7316 107.379 44.9842 106.358 44.9842C105.527 44.9842 104.779 44.8 104.116 44.4316C103.464 44.0526 102.948 43.5263 102.569 42.8526C102.201 42.1684 102.016 41.3789 102.016 40.4842C102.016 39.5895 102.195 38.8053 102.553 38.1316C102.922 37.4474 103.432 36.921 104.085 36.5526C104.748 36.1842 105.506 36 106.358 36C107.179 36 107.911 36.1789 108.553 36.5368C109.195 36.8947 109.695 37.4 110.053 38.0526C110.411 38.6947 110.59 39.4368 110.59 40.2789ZM108.711 39.7105C108.701 39.0474 108.464 38.5158 108.001 38.1158C107.537 37.7158 106.964 37.5158 106.279 37.5158C105.658 37.5158 105.127 37.7158 104.685 38.1158C104.243 38.5053 103.979 39.0368 103.895 39.7105H108.711ZM124.452 37.1368C124.452 37.6947 124.321 38.221 124.058 38.7158C123.795 39.2105 123.373 39.6158 122.795 39.9316C122.216 40.2368 121.473 40.3895 120.568 40.3895H118.579V44.8421H116.779V33.8684H120.568C121.41 33.8684 122.121 34.0158 122.7 34.3105C123.289 34.5947 123.726 34.9842 124.01 35.4789C124.305 35.9737 124.452 36.5263 124.452 37.1368ZM120.568 38.921C121.252 38.921 121.763 38.7684 122.1 38.4632C122.437 38.1474 122.605 37.7053 122.605 37.1368C122.605 35.9368 121.926 35.3368 120.568 35.3368H118.579V38.921H120.568ZM128.127 33.1579V44.8421H126.327V33.1579H128.127ZM130.048 40.4526C130.048 39.5789 130.227 38.8053 130.585 38.1316C130.953 37.4579 131.448 36.9368 132.069 36.5684C132.701 36.1895 133.396 36 134.153 36C134.838 36 135.432 36.1368 135.938 36.4105C136.453 36.6737 136.864 37.0053 137.169 37.4053V36.1421H138.985V44.8421H137.169V43.5474C136.864 43.9579 136.448 44.3 135.922 44.5737C135.396 44.8474 134.796 44.9842 134.122 44.9842C133.375 44.9842 132.69 44.7947 132.069 44.4158C131.448 44.0263 130.953 43.4895 130.585 42.8053C130.227 42.1105 130.048 41.3263 130.048 40.4526ZM137.169 40.4842C137.169 39.8842 137.043 39.3632 136.79 38.921C136.548 38.4789 136.227 38.1421 135.827 37.9105C135.427 37.6789 134.996 37.5632 134.532 37.5632C134.069 37.5632 133.638 37.6789 133.238 37.9105C132.838 38.1316 132.511 38.4632 132.259 38.9053C132.017 39.3368 131.896 39.8526 131.896 40.4526C131.896 41.0526 132.017 41.5789 132.259 42.0316C132.511 42.4842 132.838 42.8316 133.238 43.0737C133.648 43.3053 134.08 43.421 134.532 43.421C134.996 43.421 135.427 43.3053 135.827 43.0737C136.227 42.8421 136.548 42.5053 136.79 42.0632C137.043 41.6105 137.169 41.0842 137.169 40.4842ZM149.339 36.1421L144.002 48.9316H142.139L143.907 44.7L140.481 36.1421H142.486L144.933 42.7737L147.476 36.1421H149.339Z" fill="white"/>
<defs>
<clipPath id="clip0_8_157">
<rect width="31.4286" height="34.7368" fill="white" transform="translate(15.7142 12.6316)"/>
</clipPath>
</defs>
</svg>
