<svg width="165" height="60" viewBox="0 0 165 60" fill="none" xmlns="http://www.w3.org/2000/svg">
<rect width="165" height="60" rx="6.31579" fill="black"/>
<path d="M39.2068 31.1046C39.1675 26.7161 42.783 24.5811 42.9483 24.4817C40.9007 21.4821 37.7271 21.0722 36.6119 21.0395C33.9463 20.7577 31.3607 22.6422 30.0029 22.6422C28.618 22.6422 26.527 21.0668 24.2734 21.1131C21.3734 21.158 18.6606 22.845 17.1725 25.4648C14.1019 30.8064 16.392 38.6561 19.3341 42.9737C20.8056 45.0897 22.5254 47.4494 24.7762 47.3663C26.9782 47.2764 27.8008 45.957 30.4582 45.957C33.0911 45.957 33.8637 47.3663 36.1591 47.3132C38.5226 47.2764 40.0104 45.1891 41.4307 43.0554C43.1314 40.6331 43.8142 38.2449 43.8415 38.1223C43.7871 38.1033 39.2529 36.3631 39.2068 31.1046ZM34.8704 18.1992C36.0547 16.711 36.8652 14.6863 36.6402 12.6316C34.9258 12.7078 32.7821 13.823 31.5475 15.2786C30.4553 16.5612 29.4796 18.6635 29.7316 20.6406C31.6574 20.7849 33.6345 19.6643 34.8704 18.1992Z" fill="white"/>
<path d="M59.6053 19.9368H55.7653L55.0579 21.8947H53.8453L57.0285 13.1411H58.3548L61.5253 21.8947H60.3127L59.6053 19.9368ZM59.2769 19.0021L57.6853 14.5558L56.0937 19.0021H59.2769ZM65.6158 20.8337L67.7631 14.9726H68.9884L66.2726 21.8947H64.9337L62.2179 14.9726H63.4558L65.6158 20.8337ZM69.8164 18.4084C69.8164 17.7011 69.9595 17.0821 70.2458 16.5516C70.5322 16.0126 70.9237 15.5958 71.4206 15.3011C71.9258 15.0063 72.4858 14.8589 73.1006 14.8589C73.7069 14.8589 74.2332 14.9895 74.6795 15.2505C75.1258 15.5116 75.4585 15.84 75.6774 16.2358V14.9726H76.8395V21.8947H75.6774V20.6063C75.45 21.0105 75.109 21.3474 74.6543 21.6168C74.2079 21.8779 73.6858 22.0084 73.0879 22.0084C72.4732 22.0084 71.9174 21.8568 71.4206 21.5537C70.9237 21.2505 70.5322 20.8253 70.2458 20.2779C69.9595 19.7305 69.8164 19.1074 69.8164 18.4084ZM75.6774 18.4211C75.6774 17.8989 75.5722 17.4442 75.3616 17.0568C75.1511 16.6695 74.8648 16.3747 74.5027 16.1726C74.149 15.9621 73.7574 15.8568 73.3279 15.8568C72.8985 15.8568 72.5069 15.9579 72.1532 16.16C71.7995 16.3621 71.5174 16.6568 71.3069 17.0442C71.0964 17.4316 70.9911 17.8863 70.9911 18.4084C70.9911 18.9389 71.0964 19.4021 71.3069 19.7979C71.5174 20.1853 71.7995 20.4842 72.1532 20.6947C72.5069 20.8968 72.8985 20.9979 73.3279 20.9979C73.7574 20.9979 74.149 20.8968 74.5027 20.6947C74.8648 20.4842 75.1511 20.1853 75.3616 19.7979C75.5722 19.4021 75.6774 18.9432 75.6774 18.4211ZM79.502 13.8484C79.2831 13.8484 79.0978 13.7726 78.9462 13.6211C78.7947 13.4695 78.7189 13.2842 78.7189 13.0653C78.7189 12.8463 78.7947 12.6611 78.9462 12.5095C79.0978 12.3579 79.2831 12.2821 79.502 12.2821C79.7125 12.2821 79.8894 12.3579 80.0325 12.5095C80.1841 12.6611 80.2599 12.8463 80.2599 13.0653C80.2599 13.2842 80.1841 13.4695 80.0325 13.6211C79.8894 13.7726 79.7125 13.8484 79.502 13.8484ZM80.0578 14.9726V21.8947H78.9083V14.9726H80.0578ZM83.2927 12.5474V21.8947H82.1432V12.5474H83.2927ZM84.9486 18.4084C84.9486 17.7011 85.0918 17.0821 85.3781 16.5516C85.6644 16.0126 86.056 15.5958 86.5528 15.3011C87.0581 15.0063 87.6181 14.8589 88.2328 14.8589C88.8391 14.8589 89.3654 14.9895 89.8118 15.2505C90.2581 15.5116 90.5907 15.84 90.8097 16.2358V14.9726H91.9718V21.8947H90.8097V20.6063C90.5823 21.0105 90.2412 21.3474 89.7865 21.6168C89.3402 21.8779 88.8181 22.0084 88.2202 22.0084C87.6054 22.0084 87.0497 21.8568 86.5528 21.5537C86.056 21.2505 85.6644 20.8253 85.3781 20.2779C85.0918 19.7305 84.9486 19.1074 84.9486 18.4084ZM90.8097 18.4211C90.8097 17.8989 90.7044 17.4442 90.4939 17.0568C90.2833 16.6695 89.997 16.3747 89.6349 16.1726C89.2812 15.9621 88.8897 15.8568 88.4602 15.8568C88.0307 15.8568 87.6391 15.9579 87.2854 16.16C86.9318 16.3621 86.6497 16.6568 86.4391 17.0442C86.2286 17.4316 86.1233 17.8863 86.1233 18.4084C86.1233 18.9389 86.2286 19.4021 86.4391 19.7979C86.6497 20.1853 86.9318 20.4842 87.2854 20.6947C87.6391 20.8968 88.0307 20.9979 88.4602 20.9979C88.8897 20.9979 89.2812 20.8968 89.6349 20.6947C89.997 20.4842 90.2833 20.1853 90.4939 19.7979C90.7044 19.4021 90.8097 18.9432 90.8097 18.4211ZM95.19 16.2611C95.4258 15.8484 95.7711 15.5116 96.2258 15.2505C96.6806 14.9895 97.1985 14.8589 97.7795 14.8589C98.4027 14.8589 98.9627 15.0063 99.4595 15.3011C99.9564 15.5958 100.348 16.0126 100.634 16.5516C100.921 17.0821 101.064 17.7011 101.064 18.4084C101.064 19.1074 100.921 19.7305 100.634 20.2779C100.348 20.8253 99.9522 21.2505 99.4469 21.5537C98.95 21.8568 98.3943 22.0084 97.7795 22.0084C97.1816 22.0084 96.6553 21.8779 96.2006 21.6168C95.7543 21.3558 95.4174 21.0232 95.19 20.6189V21.8947H94.0406V12.5474H95.19V16.2611ZM99.889 18.4084C99.889 17.8863 99.7837 17.4316 99.5732 17.0442C99.3627 16.6568 99.0764 16.3621 98.7143 16.16C98.3606 15.9579 97.969 15.8568 97.5395 15.8568C97.1185 15.8568 96.7269 15.9621 96.3648 16.1726C96.0111 16.3747 95.7248 16.6737 95.5058 17.0695C95.2953 17.4568 95.19 17.9074 95.19 18.4211C95.19 18.9432 95.2953 19.4021 95.5058 19.7979C95.7248 20.1853 96.0111 20.4842 96.3648 20.6947C96.7269 20.8968 97.1185 20.9979 97.5395 20.9979C97.969 20.9979 98.3606 20.8968 98.7143 20.6947C99.0764 20.4842 99.3627 20.1853 99.5732 19.7979C99.7837 19.4021 99.889 18.9389 99.889 18.4084ZM103.853 12.5474V21.8947H102.703V12.5474H103.853ZM112.254 18.1684C112.254 18.3874 112.241 18.6189 112.216 18.8632H106.683C106.725 19.5453 106.957 20.08 107.378 20.4674C107.807 20.8463 108.325 21.0358 108.932 21.0358C109.428 21.0358 109.841 20.9221 110.17 20.6947C110.506 20.4589 110.742 20.1474 110.877 19.76H112.115C111.93 20.4253 111.559 20.9684 111.003 21.3895C110.447 21.8021 109.757 22.0084 108.932 22.0084C108.275 22.0084 107.685 21.8611 107.163 21.5663C106.65 21.2716 106.245 20.8547 105.951 20.3158C105.656 19.7684 105.508 19.1368 105.508 18.4211C105.508 17.7053 105.652 17.0779 105.938 16.5389C106.224 16 106.624 15.5874 107.138 15.3011C107.66 15.0063 108.258 14.8589 108.932 14.8589C109.588 14.8589 110.17 15.0021 110.675 15.2884C111.18 15.5747 111.567 15.9705 111.837 16.4758C112.115 16.9726 112.254 17.5368 112.254 18.1684ZM111.066 17.9284C111.066 17.4905 110.97 17.1158 110.776 16.8042C110.582 16.4842 110.317 16.2442 109.98 16.0842C109.652 15.9158 109.285 15.8316 108.881 15.8316C108.3 15.8316 107.803 16.0168 107.391 16.3874C106.986 16.7579 106.755 17.2716 106.696 17.9284H111.066ZM120.41 22.0084C119.762 22.0084 119.172 21.8611 118.642 21.5663C118.12 21.2716 117.707 20.8547 117.404 20.3158C117.109 19.7684 116.962 19.1368 116.962 18.4211C116.962 17.7137 117.113 17.0905 117.416 16.5516C117.728 16.0042 118.149 15.5874 118.68 15.3011C119.21 15.0063 119.804 14.8589 120.461 14.8589C121.118 14.8589 121.711 15.0063 122.242 15.3011C122.772 15.5874 123.189 16 123.492 16.5389C123.804 17.0779 123.96 17.7053 123.96 18.4211C123.96 19.1368 123.8 19.7684 123.48 20.3158C123.168 20.8547 122.743 21.2716 122.204 21.5663C121.665 21.8611 121.067 22.0084 120.41 22.0084ZM120.41 20.9979C120.823 20.9979 121.21 20.9011 121.572 20.7074C121.934 20.5137 122.225 20.2232 122.444 19.8358C122.671 19.4484 122.785 18.9768 122.785 18.4211C122.785 17.8653 122.675 17.3937 122.456 17.0063C122.238 16.6189 121.951 16.3326 121.598 16.1474C121.244 15.9537 120.861 15.8568 120.448 15.8568C120.027 15.8568 119.64 15.9537 119.286 16.1474C118.941 16.3326 118.663 16.6189 118.452 17.0063C118.242 17.3937 118.136 17.8653 118.136 18.4211C118.136 18.9853 118.238 19.4611 118.44 19.8484C118.65 20.2358 118.928 20.5263 119.273 20.72C119.619 20.9053 119.998 20.9979 120.41 20.9979ZM128.97 14.8463C129.812 14.8463 130.494 15.1032 131.016 15.6168C131.538 16.1221 131.799 16.8547 131.799 17.8147V21.8947H130.663V17.9789C130.663 17.2884 130.49 16.7621 130.145 16.4C129.799 16.0295 129.328 15.8442 128.73 15.8442C128.124 15.8442 127.639 16.0337 127.277 16.4126C126.924 16.7916 126.747 17.3432 126.747 18.0674V21.8947H125.597V14.9726H126.747V15.9579C126.974 15.6042 127.282 15.3305 127.669 15.1368C128.065 14.9432 128.498 14.8463 128.97 14.8463Z" fill="#949494"/>
<path d="M61.2285 42.6H56.6337L55.8443 44.8421H53.9653L57.8969 33.8526H59.9811L63.9127 44.8421H62.0179L61.2285 42.6ZM60.7232 41.1316L58.939 36.0316L57.139 41.1316H60.7232ZM67.58 37.421C67.8853 37.021 68.3011 36.6842 68.8274 36.4105C69.3537 36.1368 69.9485 36 70.6116 36C71.3695 36 72.059 36.1895 72.68 36.5684C73.3116 36.9368 73.8063 37.4579 74.1642 38.1316C74.5221 38.8053 74.7011 39.5789 74.7011 40.4526C74.7011 41.3263 74.5221 42.1105 74.1642 42.8053C73.8063 43.4895 73.3116 44.0263 72.68 44.4158C72.059 44.7947 71.3695 44.9842 70.6116 44.9842C69.9485 44.9842 69.359 44.8526 68.8432 44.5895C68.3274 44.3158 67.9063 43.9789 67.58 43.5789V48.9789H65.78V36.1421H67.58V37.421ZM72.8695 40.4526C72.8695 39.8526 72.7432 39.3368 72.4906 38.9053C72.2485 38.4632 71.9221 38.1316 71.5116 37.9105C71.1116 37.6789 70.68 37.5632 70.2169 37.5632C69.7642 37.5632 69.3327 37.6789 68.9221 37.9105C68.5221 38.1421 68.1958 38.4789 67.9432 38.921C67.7011 39.3632 67.58 39.8842 67.58 40.4842C67.58 41.0842 67.7011 41.6105 67.9432 42.0632C68.1958 42.5053 68.5221 42.8421 68.9221 43.0737C69.3327 43.3053 69.7642 43.421 70.2169 43.421C70.68 43.421 71.1116 43.3053 71.5116 43.0737C71.9221 42.8316 72.2485 42.4842 72.4906 42.0316C72.7432 41.5789 72.8695 41.0526 72.8695 40.4526ZM78.439 37.421C78.7443 37.021 79.16 36.6842 79.6864 36.4105C80.2127 36.1368 80.8074 36 81.4706 36C82.2285 36 82.9179 36.1895 83.539 36.5684C84.1706 36.9368 84.6653 37.4579 85.0232 38.1316C85.3811 38.8053 85.56 39.5789 85.56 40.4526C85.56 41.3263 85.3811 42.1105 85.0232 42.8053C84.6653 43.4895 84.1706 44.0263 83.539 44.4158C82.9179 44.7947 82.2285 44.9842 81.4706 44.9842C80.8074 44.9842 80.2179 44.8526 79.7022 44.5895C79.1864 44.3158 78.7653 43.9789 78.439 43.5789V48.9789H76.639V36.1421H78.439V37.421ZM83.7285 40.4526C83.7285 39.8526 83.6022 39.3368 83.3495 38.9053C83.1074 38.4632 82.7811 38.1316 82.3706 37.9105C81.9706 37.6789 81.539 37.5632 81.0758 37.5632C80.6232 37.5632 80.1916 37.6789 79.7811 37.9105C79.3811 38.1421 79.0548 38.4789 78.8022 38.921C78.56 39.3632 78.439 39.8842 78.439 40.4842C78.439 41.0842 78.56 41.6105 78.8022 42.0632C79.0548 42.5053 79.3811 42.8421 79.7811 43.0737C80.1916 43.3053 80.6232 43.421 81.0758 43.421C81.539 43.421 81.9706 43.3053 82.3706 43.0737C82.7811 42.8316 83.1074 42.4842 83.3495 42.0316C83.6022 41.5789 83.7285 41.0526 83.7285 40.4526ZM95.3732 44.9526C94.6364 44.9526 93.9732 44.8263 93.3837 44.5737C92.7943 44.3105 92.3311 43.9421 91.9943 43.4684C91.6574 42.9947 91.489 42.4421 91.489 41.8105H93.4153C93.4574 42.2842 93.6416 42.6737 93.9679 42.9789C94.3048 43.2842 94.7732 43.4368 95.3732 43.4368C95.9943 43.4368 96.4785 43.2895 96.8258 42.9947C97.1732 42.6895 97.3469 42.3 97.3469 41.8263C97.3469 41.4579 97.2364 41.1579 97.0153 40.9263C96.8048 40.6947 96.5364 40.5158 96.21 40.3895C95.8943 40.2632 95.4522 40.1263 94.8837 39.9789C94.1679 39.7895 93.5837 39.6 93.1311 39.4105C92.689 39.2105 92.31 38.9053 91.9943 38.4947C91.6785 38.0842 91.5206 37.5368 91.5206 36.8526C91.5206 36.221 91.6785 35.6684 91.9943 35.1947C92.31 34.721 92.7522 34.3579 93.3206 34.1053C93.889 33.8526 94.5469 33.7263 95.2943 33.7263C96.3574 33.7263 97.2258 33.9947 97.8995 34.5316C98.5837 35.0579 98.9627 35.7842 99.0364 36.7105H97.0469C97.0153 36.3105 96.8258 35.9684 96.4785 35.6842C96.1311 35.4 95.6732 35.2579 95.1048 35.2579C94.589 35.2579 94.1679 35.3895 93.8416 35.6526C93.5153 35.9158 93.3522 36.2947 93.3522 36.7895C93.3522 37.1263 93.4522 37.4053 93.6522 37.6263C93.8627 37.8368 94.1258 38.0053 94.4416 38.1316C94.7574 38.2579 95.189 38.3947 95.7364 38.5421C96.4627 38.7421 97.0522 38.9421 97.5048 39.1421C97.9679 39.3421 98.3574 39.6526 98.6732 40.0737C98.9995 40.4842 99.1627 41.0368 99.1627 41.7316C99.1627 42.2895 99.01 42.8158 98.7048 43.3105C98.41 43.8053 97.9732 44.2053 97.3943 44.5105C96.8258 44.8053 96.1522 44.9526 95.3732 44.9526ZM103.545 37.6105V42.4263C103.545 42.7526 103.618 42.9895 103.766 43.1368C103.923 43.2737 104.187 43.3421 104.555 43.3421H105.66V44.8421H104.239C103.429 44.8421 102.808 44.6526 102.376 44.2737C101.945 43.8947 101.729 43.2789 101.729 42.4263V37.6105H100.702V36.1421H101.729V33.9789H103.545V36.1421H105.66V37.6105H103.545ZM111.251 44.9842C110.43 44.9842 109.688 44.8 109.025 44.4316C108.361 44.0526 107.84 43.5263 107.461 42.8526C107.082 42.1684 106.893 41.3789 106.893 40.4842C106.893 39.6 107.088 38.8158 107.477 38.1316C107.867 37.4474 108.398 36.921 109.072 36.5526C109.746 36.1842 110.498 36 111.33 36C112.161 36 112.914 36.1842 113.588 36.5526C114.261 36.921 114.793 37.4474 115.182 38.1316C115.572 38.8158 115.767 39.6 115.767 40.4842C115.767 41.3684 115.567 42.1526 115.167 42.8368C114.767 43.521 114.219 44.0526 113.525 44.4316C112.84 44.8 112.082 44.9842 111.251 44.9842ZM111.251 43.421C111.714 43.421 112.146 43.3105 112.546 43.0895C112.956 42.8684 113.288 42.5368 113.54 42.0947C113.793 41.6526 113.919 41.1158 113.919 40.4842C113.919 39.8526 113.798 39.321 113.556 38.8895C113.314 38.4474 112.993 38.1158 112.593 37.8947C112.193 37.6737 111.761 37.5632 111.298 37.5632C110.835 37.5632 110.404 37.6737 110.004 37.8947C109.614 38.1158 109.304 38.4474 109.072 38.8895C108.84 39.321 108.725 39.8526 108.725 40.4842C108.725 41.421 108.961 42.1474 109.435 42.6632C109.919 43.1684 110.525 43.421 111.251 43.421ZM119.504 37.4053C119.767 36.9632 120.114 36.621 120.546 36.3789C120.988 36.1263 121.509 36 122.109 36V37.8632H121.651C120.946 37.8632 120.409 38.0421 120.041 38.4C119.683 38.7579 119.504 39.3789 119.504 40.2632V44.8421H117.704V36.1421H119.504V37.4053ZM131.895 40.2789C131.895 40.6053 131.874 40.9 131.832 41.1632H125.185C125.237 41.8579 125.495 42.4158 125.959 42.8368C126.422 43.2579 126.99 43.4684 127.664 43.4684C128.632 43.4684 129.316 43.0632 129.716 42.2526H131.659C131.395 43.0526 130.916 43.7105 130.222 44.2263C129.537 44.7316 128.685 44.9842 127.664 44.9842C126.832 44.9842 126.085 44.8 125.422 44.4316C124.769 44.0526 124.253 43.5263 123.874 42.8526C123.506 42.1684 123.322 41.3789 123.322 40.4842C123.322 39.5895 123.501 38.8053 123.859 38.1316C124.227 37.4474 124.737 36.921 125.39 36.5526C126.053 36.1842 126.811 36 127.664 36C128.485 36 129.216 36.1789 129.859 36.5368C130.501 36.8947 131.001 37.4 131.359 38.0526C131.716 38.6947 131.895 39.4368 131.895 40.2789ZM130.016 39.7105C130.006 39.0474 129.769 38.5158 129.306 38.1158C128.843 37.7158 128.269 37.5158 127.585 37.5158C126.964 37.5158 126.432 37.7158 125.99 38.1158C125.548 38.5053 125.285 39.0368 125.201 39.7105H130.016Z" fill="white"/>
</svg>
