<svg width="141" height="45" viewBox="0 0 141 45" fill="none" xmlns="http://www.w3.org/2000/svg">
<path d="M46.99 16.05V20.31H53.86V24.27H46.99V28.89H54.76V33H41.86V11.94H54.76V16.05H46.99ZM63.5205 10.8V33H58.3905V10.8H63.5205ZM72.6681 10.8V33H67.5381V10.8H72.6681ZM79.2658 14.52C78.3658 14.52 77.6258 14.26 77.0458 13.74C76.4858 13.2 76.2058 12.54 76.2058 11.76C76.2058 10.96 76.4858 10.3 77.0458 9.78C77.6258 9.24 78.3658 8.97 79.2658 8.97C80.1458 8.97 80.8658 9.24 81.4258 9.78C82.0058 10.3 82.2958 10.96 82.2958 11.76C82.2958 12.54 82.0058 13.2 81.4258 13.74C80.8658 14.26 80.1458 14.52 79.2658 14.52ZM81.8158 16.26V33H76.6858V16.26H81.8158ZM90.9634 18.63C91.4634 17.85 92.1534 17.22 93.0334 16.74C93.9134 16.26 94.9434 16.02 96.1234 16.02C97.5034 16.02 98.7534 16.37 99.8734 17.07C100.993 17.77 101.873 18.77 102.513 20.07C103.173 21.37 103.503 22.88 103.503 24.6C103.503 26.32 103.173 27.84 102.513 29.16C101.873 30.46 100.993 31.47 99.8734 32.19C98.7534 32.89 97.5034 33.24 96.1234 33.24C94.9634 33.24 93.9334 33 93.0334 32.52C92.1534 32.04 91.4634 31.42 90.9634 30.66V40.98H85.8334V16.26H90.9634V18.63ZM98.2834 24.6C98.2834 23.32 97.9234 22.32 97.2034 21.6C96.5034 20.86 95.6334 20.49 94.5934 20.49C93.5734 20.49 92.7034 20.86 91.9834 21.6C91.2834 22.34 90.9334 23.35 90.9334 24.63C90.9334 25.91 91.2834 26.92 91.9834 27.66C92.7034 28.4 93.5734 28.77 94.5934 28.77C95.6134 28.77 96.4834 28.4 97.2034 27.66C97.9234 26.9 98.2834 25.88 98.2834 24.6ZM113.305 33.24C111.845 33.24 110.545 32.99 109.405 32.49C108.265 31.99 107.365 31.31 106.705 30.45C106.045 29.57 105.675 28.59 105.595 27.51H110.665C110.725 28.09 110.995 28.56 111.475 28.92C111.955 29.28 112.545 29.46 113.245 29.46C113.885 29.46 114.375 29.34 114.715 29.1C115.075 28.84 115.255 28.51 115.255 28.11C115.255 27.63 115.005 27.28 114.505 27.06C114.005 26.82 113.195 26.56 112.075 26.28C110.875 26 109.875 25.71 109.075 25.41C108.275 25.09 107.585 24.6 107.005 23.94C106.425 23.26 106.135 22.35 106.135 21.21C106.135 20.25 106.395 19.38 106.915 18.6C107.455 17.8 108.235 17.17 109.255 16.71C110.295 16.25 111.525 16.02 112.945 16.02C115.045 16.02 116.695 16.54 117.895 17.58C119.115 18.62 119.815 20 119.995 21.72H115.255C115.175 21.14 114.915 20.68 114.475 20.34C114.055 20 113.495 19.83 112.795 19.83C112.195 19.83 111.735 19.95 111.415 20.19C111.095 20.41 110.935 20.72 110.935 21.12C110.935 21.6 111.185 21.96 111.685 22.2C112.205 22.44 113.005 22.68 114.085 22.92C115.325 23.24 116.335 23.56 117.115 23.88C117.895 24.18 118.575 24.68 119.155 25.38C119.755 26.06 120.065 26.98 120.085 28.14C120.085 29.12 119.805 30 119.245 30.78C118.705 31.54 117.915 32.14 116.875 32.58C115.855 33.02 114.665 33.24 113.305 33.24ZM139.303 24.36C139.303 24.84 139.273 25.34 139.213 25.86H127.603C127.683 26.9 128.013 27.7 128.593 28.26C129.193 28.8 129.923 29.07 130.783 29.07C132.063 29.07 132.953 28.53 133.453 27.45H138.913C138.633 28.55 138.123 29.54 137.383 30.42C136.663 31.3 135.753 31.99 134.653 32.49C133.553 32.99 132.323 33.24 130.963 33.24C129.323 33.24 127.863 32.89 126.583 32.19C125.303 31.49 124.303 30.49 123.583 29.19C122.863 27.89 122.503 26.37 122.503 24.63C122.503 22.89 122.853 21.37 123.553 20.07C124.273 18.77 125.273 17.77 126.553 17.07C127.833 16.37 129.303 16.02 130.963 16.02C132.583 16.02 134.023 16.36 135.283 17.04C136.543 17.72 137.523 18.69 138.223 19.95C138.943 21.21 139.303 22.68 139.303 24.36ZM134.053 23.01C134.053 22.13 133.753 21.43 133.153 20.91C132.553 20.39 131.803 20.13 130.903 20.13C130.043 20.13 129.313 20.38 128.713 20.88C128.133 21.38 127.773 22.09 127.633 23.01H134.053Z" fill="#1C1C1C"/>
<path d="M15 7.99999C15 7.4477 14.5517 6.99651 14.0006 7.03329C10.3874 7.27441 6.96996 8.81683 4.3934 11.3934C1.58035 14.2064 0 18.0217 0 22C0 25.9782 1.58035 29.7935 4.39339 32.6066C6.96996 35.1831 10.3873 36.7256 14.0006 36.9667C14.5517 37.0035 15 36.5523 15 36V25.874C13.2748 25.4299 12 23.8638 12 22C12 20.1362 13.2748 18.5701 15 18.126V7.99999Z" fill="#FF6525"/>
<path d="M18 25.874C19.7252 25.4299 21 23.8638 21 22C21 20.1362 19.7252 18.5701 18 18.126V12C18 11.4477 18.4491 10.9943 18.998 11.0549C21.2837 11.307 23.4324 12.4193 25.0711 14.2218C26.9464 16.2847 28 19.0826 28 22C28 24.9174 26.9464 27.7153 25.0711 29.7782C23.4324 31.5807 21.2837 32.693 18.998 32.9451C18.4491 33.0057 18 32.5523 18 32V25.874Z" fill="#FF6525"/>
</svg>
